<svg id="filled_outline" height="512" viewBox="0 0 512 512" width="512" xmlns="http://www.w3.org/2000/svg" data-name="filled outline"><path d="m56 56h400v296h-400z" fill="#548aff"/><path d="m32 24h448v32h-448z" fill="#91c0ff"/><path d="m256 168-48 32 48 32 48-32z" fill="#a6cfff"/><path d="m160 224h-64l16-48h64z" fill="#ffc431"/><path d="m400 224h-64l16-48h64z" fill="#ffc431"/><rect fill="#f5714f" height="48" rx="24" width="80" x="216" y="88"/><path d="m176 312h-72v-40l7.49568-4.99712a29.75358 29.75358 0 0 1 33.00864 0 29.75356 29.75356 0 0 0 16.50434 4.99712h14.99134z" fill="#02c26a"/><rect fill="#f5714f" height="48" rx="24" width="80" x="216" y="264"/><path d="m240 352h32v48h-32z" fill="#7dafff"/><path d="m224 400h64v32h-64z" fill="#a6cfff"/><path d="m224 432-24 56h16l40-56z" fill="#7dafff"/><path d="m288 432 24 56h-16l-40-56z" fill="#7dafff"/><path d="m480 16h-448a8.00039 8.00039 0 0 0 -8 8v32a8.00039 8.00039 0 0 0 8 8h16v288a8.00039 8.00039 0 0 0 8 8h176v32h-8a8.00039 8.00039 0 0 0 -8 8v30.35693l-23.35352 54.4917a8.00014 8.00014 0 0 0 7.35352 11.15137h16a7.99969 7.99969 0 0 0 6.50977-3.35059l33.49023-46.88623 33.49023 46.88623a7.99969 7.99969 0 0 0 6.50977 3.35059h16a8.00014 8.00014 0 0 0 7.35352-11.15137l-23.35352-54.4917v-30.35693a8.00039 8.00039 0 0 0 -8-8h-8v-32h176a8.00039 8.00039 0 0 0 8-8v-288h16a8.00039 8.00039 0 0 0 8-8v-32a8.00039 8.00039 0 0 0 -8-8zm-248 392h48v16h-48zm-19.49414 71.12793 16.76953-39.12793h11.17944zm59.03931-39.12793h11.17944l16.76953 39.12793zm-7.54517-48h-16v-32h16zm184-48h-384v-280h384zm24-296h-432v-16h432z"/><path d="m96 232h32v21.9856a37.70039 37.70039 0 0 0 -20.94141 6.36108l-7.49609 4.99707a7.99943 7.99943 0 0 0 -3.5625 6.65625v40a8.00039 8.00039 0 0 0 8 8h72a8.00039 8.00039 0 0 0 8-8v-16h25.0127a32.05794 32.05794 0 0 0 30.9873 24h32a32 32 0 0 0 0-64h-32a32.05794 32.05794 0 0 0 -30.9873 24h-25.0127v-8a8.00039 8.00039 0 0 0 -8-8h-14.99121a21.68865 21.68865 0 0 1 -12.06738-3.65332 38.11081 38.11081 0 0 0 -4.94141-2.7876v-25.55908h16a8.00026 8.00026 0 0 0 7.58984-5.46973l6.17676-18.53027h31.81152l45.98438 30.65625a7.99891 7.99891 0 0 0 8.875 0l45.98438-30.65625h26.47827l-4.49 13.46973a8.00022 8.00022 0 0 0 7.58985 10.53027h64a8.00026 8.00026 0 0 0 7.58984-5.46973l16-48a8.00022 8.00022 0 0 0 -7.58984-10.53027h-24v-40a24.0275 24.0275 0 0 0 -24-24h-65.0127a32.05794 32.05794 0 0 0 -30.9873-24h-32a32 32 0 0 0 0 64h32a32.05794 32.05794 0 0 0 30.9873-24h65.0127a8.00917 8.00917 0 0 1 8 8v40h-24a8.00026 8.00026 0 0 0 -7.58984 5.46973l-6.17676 18.53027h-31.81152l-45.98438-30.65625a8.00131 8.00131 0 0 0 -8.875 0l-45.98438 30.65625h-26.47827l4.49-13.46973a8.00022 8.00022 0 0 0 -7.58985-10.53027h-64a8.00026 8.00026 0 0 0 -7.58984 5.46973l-16 48a8.00022 8.00022 0 0 0 7.58984 10.53027zm144 40h32a16 16 0 0 1 0 32h-32a16 16 0 0 1 0-32zm-78.99121 8h6.99121v24h-56v-27.71875l3.93359-2.62207a21.69926 21.69926 0 0 1 24.13282 0 37.62916 37.62916 0 0 0 20.94238 6.34082zm110.99121-152h-32a16 16 0 0 1 0-32h32a16 16 0 0 1 0 32zm85.76562 56h47.13477l-10.666 32h-47.13478zm-101.76562-6.38477 33.57812 22.38477-33.57812 22.38477-33.57812-22.38477zm-138.23438 6.38477h47.13477l-10.666 32h-47.13478z"/></svg>